<svg id="visual" viewBox="0 0 1920 200" width="1920" height="200" xmlns="" xmlns:xlink="http://www.w3.org/1999/xlink" version="1.1"><rect x="0" y="0" width="1920" height="200" fill="#1f2833"></rect><path d="M0 58L24.7 55.5C49.3 53 98.7 48 147.8 46.3C197 44.7 246 46.3 295.2 53.5C344.3 60.7 393.7 73.3 443 84.8C492.3 96.3 541.7 106.7 590.8 105.2C640 103.7 689 90.3 738.2 89.3C787.3 88.3 836.7 99.7 886 95.7C935.3 91.7 984.7 72.3 1034 70.3C1083.3 68.3 1132.7 83.7 1181.8 80.7C1231 77.7 1280 56.3 1329.2 46.5C1378.3 36.7 1427.7 38.3 1477 51.7C1526.3 65 1575.7 90 1624.8 97.3C1674 104.7 1723 94.3 1772.2 96C1821.3 97.7 1870.7 111.3 1895.3 118.2L1920 125L1920 0L1895.3 0C1870.7 0 1821.3 0 1772.2 0C1723 0 1674 0 1624.8 0C1575.7 0 1526.3 0 1477 0C1427.7 0 1378.3 0 1329.2 0C1280 0 1231 0 1181.8 0C1132.7 0 1083.3 0 1034 0C984.7 0 935.3 0 886 0C836.7 0 787.3 0 738.2 0C689 0 640 0 590.8 0C541.7 0 492.3 0 443 0C393.7 0 344.3 0 295.2 0C246 0 197 0 147.8 0C98.7 0 49.3 0 24.7 0L0 0Z" fill="#0b0c10" stroke-linecap="round" stroke-linejoin="miter"></path></svg>